<?xml version="1.0" encoding="utf-8"?>
<!-- Generator: Adobe Illustrator 24.0.1, SVG Export Plug-In . SVG Version: 6.00 Build 0)  -->
<svg version="1.1" id="Calque_1" xmlns="http://www.w3.org/2000/svg" xmlns:xlink="http://www.w3.org/1999/xlink" x="0px" y="0px"
	 viewBox="0 0 535 99" style="enable-background:new 0 0 535 99;" xml:space="preserve">
<style type="text/css">
	.st0{fill:#FFFFFF;}
	.st1{fill:#C2CDD3;}
	.st2{fill-rule:evenodd;clip-rule:evenodd;fill:#C2CDD3;}
	.st3{fill-rule:evenodd;clip-rule:evenodd;fill:#1190D0;}
</style>
<g>
	<g>
		<g>
			<path class="st0" d="M237,53.3l-10.8-28.1h7.7l9,23.3l6.3-23.3h10.2l6.3,23.1l8.9-23.1h7.7l-10.8,28.1h-11.8l-5.3-19.6l-5.3,19.6
				H237z"/>
			<path class="st0" d="M293.6,53.3H286V25.2h7.6v10.1h4.7l11-10.1h11.1l-14.8,13.7l16.9,14.4h-11.7l-12.1-10.4h-5V53.3z"/>
			<path class="st0" d="M370.8,42.8h7.6v4c0,1.8-0.7,3.3-2.2,4.6c-1.5,1.3-3.3,1.9-5.4,1.9H350c-2.1,0-3.8-0.6-5.3-1.9
				c-1.5-1.3-2.3-2.8-2.3-4.6V31.7c0-1.8,0.7-3.3,2.2-4.6s3.3-1.9,5.4-1.9h20.8c2.1,0,3.8,0.6,5.3,1.9c1.5,1.3,2.3,2.8,2.3,4.6v3.5
				h-7.6c0-1-0.4-1.8-1.3-2.5c-0.8-0.7-1.9-1-3.1-1h-12.1c-1.2,0-2.3,0.3-3.1,1c-0.8,0.7-1.2,1.5-1.2,2.5v7.6c0,1.1,0.4,2,1.3,2.8
				c0.9,0.8,1.9,1.2,3.1,1.2h12.1c1.2,0,2.2-0.4,3.1-1.2C370.3,44.9,370.8,43.9,370.8,42.8z"/>
			<path class="st0" d="M381.9,53.3l13.8-28.1h11.9l13.7,28.1h-8.4l-2.6-5.3h-17.3l-2.6,5.3H381.9z M407.6,42.4l-5.9-12.1l-5.9,12.1
				H407.6z"/>
			<path class="st0" d="M432,53.4h-7.6V25.2h24.7c2.1,0,3.9,0.7,5.4,2.1c1.5,1.4,2.2,3.1,2.2,5v4.8c0,1.1-0.3,2.1-1,2.9
				c-0.7,0.8-1.6,1.6-2.7,2.5c1.6,0.2,2.7,1.1,3.1,2.8c0.4,1.7,0.6,4.4,0.6,8.1h-7.6c0-2.5-0.2-4.3-0.6-5.4c-0.4-1.2-1-1.7-1.7-1.7
				H432V53.4z M432,32.4v6.8h13.7c0.9,0,1.7-0.4,2.4-1.1c0.7-0.7,1-1.6,1-2.6c0-0.9-0.3-1.6-1-2.2c-0.7-0.6-1.5-0.9-2.4-0.9H432z"/>
			<path class="st0" d="M486.6,42.8h-10.1v-5.6h17.7v5.6v4c0,1.8-0.8,3.3-2.4,4.6c-1.6,1.3-3.6,1.9-5.9,1.9h-17.9
				c-2.1,0-3.8-0.6-5.3-1.9c-1.5-1.3-2.3-2.8-2.3-4.6V31.7c0-1.8,0.7-3.3,2.2-4.6s3.3-1.9,5.4-1.9h17.9c2.3,0,4.2,0.6,5.9,1.9
				c1.6,1.3,2.5,2.8,2.5,4.6v2.6h-7.6c0-0.7-0.3-1.3-0.8-1.8c-0.5-0.5-1.1-0.8-1.8-0.8h-11.7c-1.2,0-2.3,0.3-3.1,1
				c-0.8,0.7-1.2,1.5-1.2,2.5v7.6c0,1.1,0.4,2,1.3,2.8c0.9,0.8,1.9,1.2,3.1,1.2h11.6c0.8,0,1.4-0.4,1.9-1.2
				C486.3,44.9,486.6,43.9,486.6,42.8z"/>
			<path class="st0" d="M498.4,46.2V32.4c0-2,0.7-3.7,2.2-5.1c1.5-1.4,3.3-2.1,5.4-2.1h20.8c2.1,0,3.9,0.7,5.4,2.1
				c1.5,1.4,2.2,3.1,2.2,5v13.7c0,2-0.7,3.7-2.2,5.1c-1.5,1.4-3.3,2.1-5.4,2.1H506c-2.1,0-3.8-0.7-5.3-2.1
				C499.2,49.8,498.4,48.1,498.4,46.2z M509.3,46.2h14.2c0.9,0,1.7-0.3,2.3-1c0.7-0.6,1-1.4,1-2.3v-7.6c0-0.9-0.3-1.6-1-2.2
				c-0.6-0.6-1.4-0.9-2.4-0.9h-14.2c-0.9,0-1.7,0.3-2.3,0.9c-0.6,0.6-0.9,1.3-0.9,2.1V43c0,0.9,0.3,1.6,0.9,2.3
				C507.6,45.9,508.3,46.2,509.3,46.2z"/>
		</g>
		<g>
			<path class="st1" d="M260.3,65.8h1.8v15.6h-1.8V65.8z"/>
			<path class="st1" d="M277.9,70.6c1,0,1.9,0.4,2.6,1.1c0.7,0.7,1.1,1.6,1.1,2.6v7h-1.8v-7c0-0.5-0.2-1-0.6-1.4
				c-0.4-0.4-0.8-0.6-1.4-0.6h-7.8c-0.7,0-1.4,0.3-1.9,0.8c-0.5,0.5-0.8,1.2-0.8,1.9v6.3h-1.8v-6.6h0c0.1-1.2,0.5-2.1,1.4-2.9
				c0.9-0.8,1.9-1.2,3-1.2H277.9z"/>
			<path class="st1" d="M288.8,70.6h3.8v1.8h-3.8v5.3c0,0.5,0.2,1,0.6,1.4c0.4,0.4,0.9,0.6,1.4,0.6h1.8v1.7h-1.8
				c-1,0-1.9-0.4-2.6-1.1c-0.7-0.7-1.1-1.6-1.1-2.6v-5.3h-1.9v-1.8h1.9v-4.9h1.8V70.6z"/>
			<path class="st1" d="M307.8,70.6c1.2,0,2.3,0.4,3.1,1.3c0.9,0.9,1.3,1.9,1.3,3.1v1.5H298v1.2c0,0.5,0.2,1,0.6,1.4
				c0.4,0.4,0.8,0.6,1.4,0.6h12.3v1.7h-12.3c-1,0-1.9-0.4-2.6-1.1c-0.7-0.7-1.1-1.6-1.1-2.6v-3.3c0-1,0.4-1.9,1.1-2.6
				c0.7-0.7,1.6-1.1,2.6-1.1H307.8z M310.4,74.8c-0.1-0.7-0.4-1.2-0.9-1.7c-0.5-0.5-1.1-0.7-1.8-0.7h-7.8c-0.5,0-1,0.2-1.4,0.6
				c-0.4,0.4-0.6,0.8-0.6,1.4v0.4H310.4z"/>
			<path class="st1" d="M315.8,74.3c0-1,0.4-1.9,1.1-2.6c0.7-0.7,1.6-1.1,2.6-1.1h9.5v1.8h-9.5c-0.5,0-1,0.2-1.4,0.6
				c-0.4,0.4-0.6,0.8-0.6,1.4v7.1h-1.8V74.3z"/>
			<path class="st1" d="M343.5,70.6c1,0,1.9,0.4,2.6,1.1c0.7,0.7,1.1,1.6,1.1,2.6v7h-1.8v-7c0-0.5-0.2-1-0.6-1.4
				c-0.4-0.4-0.8-0.6-1.4-0.6h-7.8c-0.7,0-1.4,0.3-1.9,0.8c-0.5,0.5-0.8,1.2-0.8,1.9v6.3h-1.8v-6.6h0c0.1-1.2,0.5-2.1,1.4-2.9
				c0.9-0.8,1.9-1.2,3-1.2H343.5z"/>
			<path class="st1" d="M366.4,78.1c0,1-0.3,1.8-1,2.4c-0.7,0.6-1.6,0.9-2.7,0.9h-8.5c-1.1,0-2-0.3-2.7-0.9c-0.7-0.6-1-1.4-1-2.3
				v-0.2c0-1,0.3-1.7,1-2.3c0.7-0.6,1.6-0.9,2.7-0.9h8.5c0.7,0,1.4,0.1,2,0.4v-1.1c0-0.4-0.2-0.9-0.6-1.2c-0.4-0.4-0.9-0.6-1.4-0.6
				h-11v-1.8h11c1,0,1.9,0.4,2.6,1.1c0.7,0.7,1.1,1.5,1.1,2.5V78.1z M362.7,79.7c1.3,0,2-0.5,2-1.6c0-0.6-0.3-1-0.8-1.2
				c-0.3-0.2-0.7-0.2-1.2-0.2h-8.5c-0.5,0-0.9,0.1-1.2,0.2c-0.5,0.2-0.8,0.6-0.8,1.2v0.2c0,0.6,0.3,1,0.8,1.2
				c0.3,0.2,0.7,0.2,1.2,0.2H362.7z"/>
			<path class="st1" d="M373.3,70.6h3.8v1.8h-3.8v5.3c0,0.5,0.2,1,0.6,1.4c0.4,0.4,0.9,0.6,1.4,0.6h1.8v1.7h-1.8
				c-1,0-1.9-0.4-2.6-1.1c-0.7-0.7-1.1-1.6-1.1-2.6v-5.3h-1.9v-1.8h1.9v-4.9h1.8V70.6z"/>
			<path class="st1" d="M380.8,65.8h1.8v1.8h-1.8V65.8z M380.8,70.6h1.8v10.8h-1.8V70.6z"/>
			<path class="st1" d="M398.5,70.6c1,0,1.9,0.4,2.6,1.1c0.7,0.7,1.1,1.6,1.1,2.6v3.4c0,1-0.4,1.9-1.1,2.6c-0.7,0.7-1.6,1.1-2.6,1.1
				h-8.6c-1,0-1.9-0.4-2.6-1.1c-0.7-0.7-1.1-1.6-1.1-2.6v-3.4c0-1,0.4-1.9,1.1-2.6c0.7-0.7,1.6-1.1,2.6-1.1H398.5z M400.5,74.3
				c0-0.5-0.2-1-0.6-1.4c-0.4-0.4-0.8-0.6-1.4-0.6h-8.6c-0.5,0-1,0.2-1.4,0.6c-0.4,0.4-0.6,0.8-0.6,1.4v3.4c0,0.5,0.2,1,0.6,1.4
				c0.4,0.4,0.8,0.6,1.4,0.6h8.6c0.5,0,1-0.2,1.4-0.6c0.4-0.4,0.6-0.8,0.6-1.4V74.3z"/>
			<path class="st1" d="M418,70.6c1,0,1.9,0.4,2.6,1.1c0.7,0.7,1.1,1.6,1.1,2.6v7H420v-7c0-0.5-0.2-1-0.6-1.4
				c-0.4-0.4-0.8-0.6-1.4-0.6h-7.8c-0.7,0-1.4,0.3-1.9,0.8c-0.5,0.5-0.8,1.2-0.8,1.9v6.3h-1.8v-6.6h0c0.1-1.2,0.5-2.1,1.4-2.9
				c0.9-0.8,1.9-1.2,3-1.2H418z"/>
			<path class="st1" d="M441,78.1c0,1-0.3,1.8-1,2.4c-0.7,0.6-1.6,0.9-2.7,0.9h-8.5c-1.1,0-2-0.3-2.7-0.9c-0.7-0.6-1-1.4-1-2.3v-0.2
				c0-1,0.3-1.7,1-2.3c0.7-0.6,1.6-0.9,2.7-0.9h8.5c0.7,0,1.4,0.1,2,0.4v-1.1c0-0.4-0.2-0.9-0.6-1.2c-0.4-0.4-0.9-0.6-1.4-0.6h-11
				v-1.8h11c1,0,1.9,0.4,2.6,1.1c0.7,0.7,1.1,1.5,1.1,2.5V78.1z M437.3,79.7c1.3,0,2-0.5,2-1.6c0-0.6-0.3-1-0.8-1.2
				c-0.3-0.2-0.7-0.2-1.2-0.2h-8.5c-0.5,0-0.9,0.1-1.2,0.2c-0.5,0.2-0.8,0.6-0.8,1.2v0.2c0,0.6,0.3,1,0.8,1.2
				c0.3,0.2,0.7,0.2,1.2,0.2H437.3z"/>
			<path class="st1" d="M446.2,77.7c0,0.5,0.2,1,0.6,1.4c0.4,0.4,0.9,0.6,1.4,0.6h1.8v1.7h-1.8c-1,0-1.9-0.4-2.6-1.1
				c-0.7-0.7-1.1-1.6-1.1-2.6V65.8h1.8V77.7z"/>
			<path class="st1" d="M460.7,65.8h1.8v15.6h-1.8V65.8z"/>
			<path class="st1" d="M478.3,70.6c1,0,1.9,0.4,2.6,1.1c0.7,0.7,1.1,1.6,1.1,2.6v7h-1.8v-7c0-0.5-0.2-1-0.6-1.4
				c-0.4-0.4-0.8-0.6-1.4-0.6h-7.8c-0.7,0-1.4,0.3-1.9,0.8c-0.5,0.5-0.8,1.2-0.8,1.9v6.3H466v-6.6h0c0.1-1.2,0.5-2.1,1.4-2.9
				c0.9-0.8,1.9-1.2,3-1.2H478.3z"/>
			<path class="st1" d="M485.6,75.1c0-1.2,0.4-2.3,1.3-3.1c0.9-0.9,1.9-1.3,3.1-1.3h10.1v1.8H490c-0.7,0-1.4,0.3-1.9,0.8
				c-0.5,0.5-0.8,1.2-0.8,1.9V77c0,0.7,0.3,1.4,0.8,1.9c0.5,0.5,1.2,0.8,1.9,0.8h10.1v1.7H490c-1.2,0-2.3-0.4-3.1-1.3
				c-0.9-0.9-1.3-1.9-1.3-3.1V75.1z"/>
		</g>
	</g>
	<g>
		<path class="st2" d="M159.3,61.5c-44.5,5-99.1,17.9-147.3,33C61.8,69.2,123.1,48,175.3,40.8L159.3,61.5L159.3,61.5z"/>
		<path class="st3" d="M138.3,88.9c-43.7-0.1-94.1,4-136.8,9.7C46,84.9,101.7,74.4,151.3,71.9L138.3,88.9L138.3,88.9z"/>
		<path class="st3" d="M187.3,25.1c-49.6,9-126.9,42.6-185.7,73.5C60,54.2,147.7,7.9,206.6,0L187.3,25.1L187.3,25.1z"/>
		<path class="st2" d="M2.6,96.1c0,0,60.3-43.1,83.9-58.4c7.2-4.6,14.3-9.3,21.5-13.9C67.9,38,36,70.2,2.6,96.1L2.6,96.1z"/>
	</g>
</g>
</svg>
